<svg width="17" height="17" viewBox="0 0 17 17" fill="none" xmlns="http://www.w3.org/2000/svg">
<path fill-rule="evenodd" clip-rule="evenodd" d="M11.9839 2.22409C11.9075 2.14774 11.7837 2.14774 11.7074 2.22409L9.82401 4.10746L12.8927 7.17614L14.7761 5.29277C14.8524 5.21641 14.8524 5.09262 14.7761 5.01627L11.9839 2.22409ZM11.7731 8.29572L8.70442 5.22705L2.54202 11.3895C2.50902 11.4225 2.48891 11.4662 2.48533 11.5127L2.23515 14.765L5.48744 14.5148C5.53397 14.5112 5.57769 14.4911 5.61069 14.4581L11.7731 8.29572ZM10.5878 1.10451C11.2825 0.409826 12.4088 0.409825 13.1035 1.10451L15.8956 3.89668C16.5903 4.59136 16.5903 5.71767 15.8956 6.41235L6.73028 15.5777C6.43002 15.878 6.03226 16.0609 5.60887 16.0935L1.4357 16.4145C1.20527 16.4322 0.978607 16.3484 0.815189 16.185C0.651772 16.0215 0.567923 15.7949 0.585648 15.5644L0.906661 11.3913C0.939228 10.9679 1.12217 10.5701 1.42243 10.2699L10.5878 1.10451Z" fill="#00B2A9"/>
</svg>
